ffmpeg started on 2025-05-12 at 14:24:17
Report written to "D:\Convert\FFMetrics\reports\psnr_report-6.txt"
Log level: 32
Command line:
ffmpeg -hide_banner -nostdin -i "G:\\\xc0\xed\xe8\xec\xe5\\\xce\xed\xe3\xee\xe8\xed\xe3\xe8\\!_35_\xcb\xe5\xf2\xee_2024\\DreamCast\\\xc2\xe8\xf2\xf3\xe1\xe5\xf0 - \xdf \xf1\xf2\xe0\xeb\xe0 \xef\xee\xef\xf3\xeb\xff\xf0\xed\xee\xe9 \xef\xee\xf1\xeb\xe5 \xf2\xee\xe3\xee, \xea\xe0\xea \xe7\xe0\xe1\xfb\xeb\xe0 \xe2\xfb\xea\xeb\xfe\xf7\xe8\xf2\xfc \xf1\xf2\xf0\xe8\xec\\[DC] Vden - 10_Telegram_HEVC.mkv" -i "G:\\\xc0\xed\xe8\xec\xe5\\\xce\xed\xe3\xee\xe8\xed\xe3\xe8\\!_35_\xcb\xe5\xf2\xee_2024\\DreamCast\\\xc2\xe8\xf2\xf3\xe1\xe5\xf0 - \xdf \xf1\xf2\xe0\xeb\xe0 \xef\xee\xef\xf3\xeb\xff\xf0\xed\xee\xe9 \xef\xee\xf1\xeb\xe5 \xf2\xee\xe3\xee, \xea\xe0\xea \xe7\xe0\xe1\xfb\xeb\xe0 \xe2\xfb\xea\xeb\xfe\xf7\xe8\xf2\xfc \xf1\xf2\xf0\xe8\xec\\[DC] Vden - 10_Telegram.mp4" -lavfi "[0:v]settb=AVTB,setpts=PTS-STARTPTS,format=pix_fmts=yuv420p10,fps=24000/1001,scale=1920:1080:flags=bicubic[main];[1:v]settb=AVTB,setpts=PTS-STARTPTS,format=pix_fmts=yuv420p,fps=24000/1001,scale=1920:1080:flags=bicubic[ref];[main][ref]psnr=eof_action=endall:stats_file='D\\:/Convert/FFMetrics/logs/psnr_logfile-6.txt'" -f null -
Input #0, matroska,webm, from 'G:\Аниме\Онгоинги\!_35_Лето_2024\DreamCast\Витубер - Я стала популярной после того, как забыла выключить стрим\[DC] Vden - 10_Telegram_HEVC.mkv':
  Metadata:
    COMPATIBLE_BRANDS: isomiso2avc1mp41
    MAJOR_BRAND     : isom
    MINOR_VERSION   : 512
    ENCODER         : Lavf61.7.100
  Duration: 00:23:46.73, start: -0.021000, bitrate: 1212 kb/s
  Stream #0:0: Video: hevc (Main 10), yuv420p10le(tv, bt709, progressive), 1920x1080 [SAR 1:1 DAR 16:9], 23.98 fps, 23.98 tbr, 1k tbn (default)
      Metadata:
        HANDLER_NAME    : VideoHandler
        VENDOR_ID       : [0][0][0][0]
        ENCODER         : Lavc61.19.100 libx265
        BPS             : 1016444
        DURATION        : 00:23:46.549708333
        NUMBER_OF_FRAMES: 34203
        NUMBER_OF_BYTES : 181250951
        _STATISTICS_WRITING_APP: mkvpropedit v66.0.0 ('Josie') 64-bit
        _STATISTICS_WRITING_DATE_UTC: 2025-05-06 18:46:42
        _STATISTICS_TAGS: BPS DURATION NUMBER_OF_FRAMES NUMBER_OF_BYTES
  Stream #0:1: Audio: aac (LC), 48000 Hz, stereo, fltp (default)
      Metadata:
        HANDLER_NAME    : SoundHandler
        VENDOR_ID       : [0][0][0][0]
        ENCODER         : Lavc61.19.100 aac
        BPS             : 192443
        DURATION        : 00:23:46.730000000
        NUMBER_OF_FRAMES: 66879
        NUMBER_OF_BYTES : 34320656
        _STATISTICS_WRITING_APP: mkvpropedit v66.0.0 ('Josie') 64-bit
        _STATISTICS_WRITING_DATE_UTC: 2025-05-06 18:46:42
        _STATISTICS_TAGS: BPS DURATION NUMBER_OF_FRAMES NUMBER_OF_BYTES
Input #1, mov,mp4,m4a,3gp,3g2,mj2, from 'G:\Аниме\Онгоинги\!_35_Лето_2024\DreamCast\Витубер - Я стала популярной после того, как забыла выключить стрим\[DC] Vden - 10_Telegram.mp4':
  Metadata:
    major_brand     : isom
    minor_version   : 512
    compatible_brands: isomiso2avc1mp41
    encoder         : Lavf61.1.100
  Duration: 00:23:46.68, start: 0.000000, bitrate: 3669 kb/s
  Stream #1:0[0x1](und): Video: h264 (High) (avc1 / 0x31637661), yuv420p(tv, bt709, progressive), 1920x1080 [SAR 1:1 DAR 16:9], 3522 kb/s, 23.98 fps, 23.98 tbr, 24k tbn (default)
      Metadata:
        handler_name    : VideoHandler
        vendor_id       : [0][0][0][0]
        encoder         : Lavc61.3.100 h264_qsv
  Stream #1:1[0x2](und): Audio: aac (HE-AACv2) (mp4a / 0x6134706D), 48000 Hz, stereo, fltp, 144 kb/s (default)
      Metadata:
        handler_name    : SoundHandler
        vendor_id       : [0][0][0][0]
Stream mapping:
  Stream #0:0 (hevc) -> settb:default
  Stream #1:0 (h264) -> settb:default
  psnr:default -> Stream #0:0 (wrapped_avframe)
  Stream #0:1 -> #0:1 (aac (native) -> pcm_s16le (native))
Output #0, null, to 'pipe:':
  Metadata:
    COMPATIBLE_BRANDS: isomiso2avc1mp41
    MAJOR_BRAND     : isom
    MINOR_VERSION   : 512
    encoder         : Lavf61.7.100
  Stream #0:0: Video: wrapped_avframe, yuv420p10le(tv, bt709, progressive), 1920x1080 [SAR 1:1 DAR 16:9], q=2-31, 200 kb/s, 23.98 fps, 23.98 tbn
      Metadata:
        encoder         : Lavc61.19.100 wrapped_avframe
  Stream #0:1: Audio: pcm_s16le, 48000 Hz, stereo, s16, 1536 kb/s (default)
      Metadata:
        HANDLER_NAME    : SoundHandler
        VENDOR_ID       : [0][0][0][0]
        _STATISTICS_TAGS: BPS DURATION NUMBER_OF_FRAMES NUMBER_OF_BYTES
        BPS             : 192443
        DURATION        : 00:23:46.730000000
        NUMBER_OF_FRAMES: 66879
        NUMBER_OF_BYTES : 34320656
        _STATISTICS_WRITING_APP: mkvpropedit v66.0.0 ('Josie') 64-bit
        _STATISTICS_WRITING_DATE_UTC: 2025-05-06 18:46:42
        encoder         : Lavc61.19.100 pcm_s16le
frame=  130 fps=0.0 q=-0.0 size=N/A time=00:00:05.42 bitrate=N/A speed=10.5x    frame=  342 fps=330 q=-0.0 size=N/A time=00:00:14.26 bitrate=N/A speed=13.8x    frame=  540 fps=350 q=-0.0 size=N/A time=00:00:22.52 bitrate=N/A speed=14.6x    frame=  723 fps=350 q=-0.0 size=N/A time=00:00:30.15 bitrate=N/A speed=14.6x    frame=  928 fps=359 q=-0.0 size=N/A time=00:00:38.70 bitrate=N/A speed=  15x    frame= 1133 fps=366 q=-0.0 size=N/A time=00:00:47.25 bitrate=N/A speed=15.3x    frame= 1308 fps=363 q=-0.0 size=N/A time=00:00:54.55 bitrate=N/A speed=15.1x    frame= 1522 fps=369 q=-0.0 size=N/A time=00:01:03.48 bitrate=N/A speed=15.4x    frame= 1695 fps=365 q=-0.0 size=N/A time=00:01:10.69 bitrate=N/A speed=15.2x    frame= 1871 fps=363 q=-0.0 size=N/A time=00:01:18.03 bitrate=N/A speed=15.1x    frame= 2027 fps=357 q=-0.0 size=N/A time=00:01:24.54 bitrate=N/A speed=14.9x    frame= 2161 fps=349 q=-0.0 size=N/A time=00:01:30.13 bitrate=N/A speed=14.6x    frame= 2297 fps=343 q=-0.0 size=N/A time=00:01:35.80 bitrate=N/A speed=14.3x    frame= 2482 fps=343 q=-0.0 size=N/A time=00:01:43.52 bitrate=N/A speed=14.3x    frame= 2661 fps=344 q=-0.0 size=N/A time=00:01:50.98 bitrate=N/A speed=14.3x    frame= 2875 fps=348 q=-0.0 size=N/A time=00:01:59.91 bitrate=N/A speed=14.5x    frame= 3096 fps=353 q=-0.0 size=N/A time=00:02:09.12 bitrate=N/A speed=14.7x    frame= 3321 fps=358 q=-0.0 size=N/A time=00:02:18.51 bitrate=N/A speed=14.9x    frame= 3554 fps=363 q=-0.0 size=N/A time=00:02:28.23 bitrate=N/A speed=15.1x    frame= 3779 fps=366 q=-0.0 size=N/A time=00:02:37.61 bitrate=N/A speed=15.3x    frame= 4005 fps=370 q=-0.0 size=N/A time=00:02:47.04 bitrate=N/A speed=15.4x    frame= 4270 fps=376 q=-0.0 size=N/A time=00:02:58.09 bitrate=N/A speed=15.7x    frame= 4528 fps=382 q=-0.0 size=N/A time=00:03:08.85 bitrate=N/A speed=15.9x    frame= 4753 fps=384 q=-0.0 size=N/A time=00:03:18.23 bitrate=N/A speed=  16x    frame= 4960 fps=385 q=-0.0 size=N/A time=00:03:26.87 bitrate=N/A speed=  16x    frame= 5163 fps=385 q=-0.0 size=N/A time=00:03:35.34 bitrate=N/A speed=16.1x    frame= 5401 fps=388 q=-0.0 size=N/A time=00:03:45.26 bitrate=N/A speed=16.2x    frame= 5637 fps=391 q=-0.0 size=N/A time=00:03:55.10 bitrate=N/A speed=16.3x    frame= 5880 fps=393 q=-0.0 size=N/A time=00:04:05.24 bitrate=N/A speed=16.4x    frame= 6066 fps=392 q=-0.0 size=N/A time=00:04:13.00 bitrate=N/A speed=16.3x    frame= 6298 fps=394 q=-0.0 size=N/A time=00:04:22.67 bitrate=N/A speed=16.4x    frame= 6525 fps=395 q=-0.0 size=N/A time=00:04:32.14 bitrate=N/A speed=16.5x    frame= 6730 fps=396 q=-0.0 size=N/A time=00:04:40.69 bitrate=N/A speed=16.5x    frame= 6997 fps=399 q=-0.0 size=N/A time=00:04:51.83 bitrate=N/A speed=16.6x    frame= 7241 fps=401 q=-0.0 size=N/A time=00:05:02.01 bitrate=N/A speed=16.7x    frame= 7459 fps=402 q=-0.0 size=N/A time=00:05:11.10 bitrate=N/A speed=16.8x    frame= 7715 fps=404 q=-0.0 size=N/A time=00:05:21.77 bitrate=N/A speed=16.9x    frame= 7922 fps=404 q=-0.0 size=N/A time=00:05:30.41 bitrate=N/A speed=16.9x    frame= 8143 fps=405 q=-0.0 size=N/A time=00:05:39.63 bitrate=N/A speed=16.9x    frame= 8402 fps=407 q=-0.0 size=N/A time=00:05:50.43 bitrate=N/A speed=  17x    frame= 8661 fps=410 q=-0.0 size=N/A time=00:06:01.23 bitrate=N/A speed=17.1x    frame= 8925 fps=412 q=-0.0 size=N/A time=00:06:12.24 bitrate=N/A speed=17.2x    frame= 9170 fps=414 q=-0.0 size=N/A time=00:06:22.46 bitrate=N/A speed=17.3x    frame= 9391 fps=414 q=-0.0 size=N/A time=00:06:31.68 bitrate=N/A speed=17.3x    frame= 9612 fps=414 q=-0.0 size=N/A time=00:06:40.90 bitrate=N/A speed=17.3x    frame= 9841 fps=415 q=-0.0 size=N/A time=00:06:50.45 bitrate=N/A speed=17.3x    frame=10098 fps=417 q=-0.0 size=N/A time=00:07:01.17 bitrate=N/A speed=17.4x    frame=10304 fps=416 q=-0.0 size=N/A time=00:07:09.76 bitrate=N/A speed=17.4x    frame=10550 fps=417 q=-0.0 size=N/A time=00:07:20.02 bitrate=N/A speed=17.4x    frame=10797 fps=419 q=-0.0 size=N/A time=00:07:30.32 bitrate=N/A speed=17.5x    frame=11049 fps=420 q=-0.0 size=N/A time=00:07:40.83 bitrate=N/A speed=17.5x    frame=11286 fps=421 q=-0.0 size=N/A time=00:07:50.72 bitrate=N/A speed=17.6x    frame=11542 fps=422 q=-0.0 size=N/A time=00:08:01.39 bitrate=N/A speed=17.6x    frame=11804 fps=424 q=-0.0 size=N/A time=00:08:12.32 bitrate=N/A speed=17.7x    frame=12044 fps=425 q=-0.0 size=N/A time=00:08:22.33 bitrate=N/A speed=17.7x    frame=12281 fps=425 q=-0.0 size=N/A time=00:08:32.22 bitrate=N/A speed=17.7x    frame=12523 fps=426 q=-0.0 size=N/A time=00:08:42.31 bitrate=N/A speed=17.8x    frame=12789 fps=428 q=-0.0 size=N/A time=00:08:53.40 bitrate=N/A speed=17.8x    frame=13034 fps=428 q=-0.0 size=N/A time=00:09:03.66 bitrate=N/A speed=17.9x    frame=13304 fps=430 q=-0.0 size=N/A time=00:09:14.88 bitrate=N/A speed=17.9x    frame=13553 fps=431 q=-0.0 size=N/A time=00:09:25.27 bitrate=N/A speed=  18x    frame=13806 fps=432 q=-0.0 size=N/A time=00:09:35.82 bitrate=N/A speed=  18x    frame=14035 fps=432 q=-0.0 size=N/A time=00:09:45.37 bitrate=N/A speed=  18x    frame=14262 fps=432 q=-0.0 size=N/A time=00:09:54.84 bitrate=N/A speed=  18x    frame=14487 fps=432 q=-0.0 size=N/A time=00:10:04.22 bitrate=N/A speed=  18x    frame=14690 fps=432 q=-0.0 size=N/A time=00:10:12.69 bitrate=N/A speed=  18x    frame=14940 fps=432 q=-0.0 size=N/A time=00:10:23.12 bitrate=N/A speed=  18x    frame=15189 fps=433 q=-0.0 size=N/A time=00:10:33.50 bitrate=N/A speed=18.1x    frame=15436 fps=434 q=-0.0 size=N/A time=00:10:43.80 bitrate=N/A speed=18.1x    frame=15685 fps=434 q=-0.0 size=N/A time=00:10:54.19 bitrate=N/A speed=18.1x    frame=15914 fps=435 q=-0.0 size=N/A time=00:11:03.74 bitrate=N/A speed=18.1x    frame=16103 fps=434 q=-0.0 size=N/A time=00:11:11.62 bitrate=N/A speed=18.1x    frame=16354 fps=434 q=-0.0 size=N/A time=00:11:22.09 bitrate=N/A speed=18.1x    frame=16596 fps=435 q=-0.0 size=N/A time=00:11:32.19 bitrate=N/A speed=18.1x    frame=16816 fps=435 q=-0.0 size=N/A time=00:11:41.36 bitrate=N/A speed=18.1x    frame=17054 fps=435 q=-0.0 size=N/A time=00:11:51.29 bitrate=N/A speed=18.1x    frame=17274 fps=435 q=-0.0 size=N/A time=00:12:00.46 bitrate=N/A speed=18.1x    frame=17491 fps=435 q=-0.0 size=N/A time=00:12:09.52 bitrate=N/A speed=18.1x    frame=17726 fps=435 q=-0.0 size=N/A time=00:12:19.32 bitrate=N/A speed=18.1x    frame=17929 fps=435 q=-0.0 size=N/A time=00:12:27.78 bitrate=N/A speed=18.1x    frame=18119 fps=434 q=-0.0 size=N/A time=00:12:35.71 bitrate=N/A speed=18.1x    frame=18345 fps=434 q=-0.0 size=N/A time=00:12:45.13 bitrate=N/A speed=18.1x    frame=18546 fps=433 q=-0.0 size=N/A time=00:12:53.52 bitrate=N/A speed=18.1x    frame=18734 fps=432 q=-0.0 size=N/A time=00:13:01.36 bitrate=N/A speed=  18x    frame=18939 fps=432 q=-0.0 size=N/A time=00:13:09.91 bitrate=N/A speed=  18x    frame=19200 fps=433 q=-0.0 size=N/A time=00:13:20.80 bitrate=N/A speed=18.1x    frame=19455 fps=434 q=-0.0 size=N/A time=00:13:31.43 bitrate=N/A speed=18.1x    frame=19697 fps=434 q=-0.0 size=N/A time=00:13:41.52 bitrate=N/A speed=18.1x    frame=19943 fps=435 q=-0.0 size=N/A time=00:13:51.78 bitrate=N/A speed=18.1x    frame=20180 fps=435 q=-0.0 size=N/A time=00:14:01.67 bitrate=N/A speed=18.1x    frame=20419 fps=435 q=-0.0 size=N/A time=00:14:11.64 bitrate=N/A speed=18.1x    frame=20678 fps=436 q=-0.0 size=N/A time=00:14:22.44 bitrate=N/A speed=18.2x    frame=20917 fps=436 q=-0.0 size=N/A time=00:14:32.41 bitrate=N/A speed=18.2x    frame=21124 fps=436 q=-0.0 size=N/A time=00:14:41.04 bitrate=N/A speed=18.2x    frame=21345 fps=436 q=-0.0 size=N/A time=00:14:50.26 bitrate=N/A speed=18.2x    frame=21567 fps=436 q=-0.0 size=N/A time=00:14:59.52 bitrate=N/A speed=18.2x    frame=21803 fps=436 q=-0.0 size=N/A time=00:15:09.36 bitrate=N/A speed=18.2x    frame=22040 fps=436 q=-0.0 size=N/A time=00:15:19.25 bitrate=N/A speed=18.2x    frame=22284 fps=437 q=-0.0 size=N/A time=00:15:29.42 bitrate=N/A speed=18.2x    frame=22518 fps=437 q=-0.0 size=N/A time=00:15:39.18 bitrate=N/A speed=18.2x    frame=22750 fps=437 q=-0.0 size=N/A time=00:15:48.86 bitrate=N/A speed=18.2x    frame=22966 fps=437 q=-0.0 size=N/A time=00:15:57.87 bitrate=N/A speed=18.2x    frame=23171 fps=436 q=-0.0 size=N/A time=00:16:06.42 bitrate=N/A speed=18.2x    frame=23431 fps=437 q=-0.0 size=N/A time=00:16:17.26 bitrate=N/A speed=18.2x    frame=23685 fps=437 q=-0.0 size=N/A time=00:16:27.86 bitrate=N/A speed=18.2x    frame=23955 fps=438 q=-0.0 size=N/A time=00:16:39.12 bitrate=N/A speed=18.3x    frame=24195 fps=439 q=-0.0 size=N/A time=00:16:49.13 bitrate=N/A speed=18.3x    frame=24448 fps=439 q=-0.0 size=N/A time=00:16:59.68 bitrate=N/A speed=18.3x    frame=24714 fps=440 q=-0.0 size=N/A time=00:17:10.77 bitrate=N/A speed=18.3x    frame=24977 fps=440 q=-0.0 size=N/A time=00:17:21.74 bitrate=N/A speed=18.4x    frame=25219 fps=441 q=-0.0 size=N/A time=00:17:31.84 bitrate=N/A speed=18.4x    frame=25484 fps=441 q=-0.0 size=N/A time=00:17:42.89 bitrate=N/A speed=18.4x    frame=25746 fps=442 q=-0.0 size=N/A time=00:17:53.82 bitrate=N/A speed=18.4x    frame=26007 fps=442 q=-0.0 size=N/A time=00:18:04.70 bitrate=N/A speed=18.5x    frame=26267 fps=443 q=-0.0 size=N/A time=00:18:15.55 bitrate=N/A speed=18.5x    frame=26509 fps=443 q=-0.0 size=N/A time=00:18:25.64 bitrate=N/A speed=18.5x    frame=26768 fps=444 q=-0.0 size=N/A time=00:18:36.44 bitrate=N/A speed=18.5x    frame=27032 fps=444 q=-0.0 size=N/A time=00:18:47.45 bitrate=N/A speed=18.5x    frame=27256 fps=444 q=-0.0 size=N/A time=00:18:56.80 bitrate=N/A speed=18.5x    frame=27465 fps=444 q=-0.0 size=N/A time=00:19:05.51 bitrate=N/A speed=18.5x    frame=27712 fps=444 q=-0.0 size=N/A time=00:19:15.82 bitrate=N/A speed=18.5x    frame=27974 fps=445 q=-0.0 size=N/A time=00:19:26.74 bitrate=N/A speed=18.5x    frame=28237 fps=445 q=-0.0 size=N/A time=00:19:37.71 bitrate=N/A speed=18.6x    frame=28458 fps=445 q=-0.0 size=N/A time=00:19:46.93 bitrate=N/A speed=18.6x    frame=28692 fps=445 q=-0.0 size=N/A time=00:19:56.69 bitrate=N/A speed=18.6x    frame=28952 fps=446 q=-0.0 size=N/A time=00:20:07.53 bitrate=N/A speed=18.6x    frame=29227 fps=446 q=-0.0 size=N/A time=00:20:19.00 bitrate=N/A speed=18.6x    frame=29487 fps=447 q=-0.0 size=N/A time=00:20:29.85 bitrate=N/A speed=18.6x    frame=29759 fps=447 q=-0.0 size=N/A time=00:20:41.19 bitrate=N/A speed=18.7x    frame=30002 fps=447 q=-0.0 size=N/A time=00:20:51.33 bitrate=N/A speed=18.7x    frame=30218 fps=447 q=-0.0 size=N/A time=00:21:00.34 bitrate=N/A speed=18.7x    frame=30464 fps=448 q=-0.0 size=N/A time=00:21:10.60 bitrate=N/A speed=18.7x    frame=30698 fps=447 q=-0.0 size=N/A time=00:21:20.36 bitrate=N/A speed=18.7x    frame=30896 fps=447 q=-0.0 size=N/A time=00:21:28.62 bitrate=N/A speed=18.6x    frame=31150 fps=447 q=-0.0 size=N/A time=00:21:39.21 bitrate=N/A speed=18.7x    frame=31385 fps=447 q=-0.0 size=N/A time=00:21:49.01 bitrate=N/A speed=18.7x    frame=31604 fps=447 q=-0.0 size=N/A time=00:21:58.15 bitrate=N/A speed=18.7x    frame=31837 fps=447 q=-0.0 size=N/A time=00:22:07.86 bitrate=N/A speed=18.7x    frame=32066 fps=447 q=-0.0 size=N/A time=00:22:17.41 bitrate=N/A speed=18.7x    frame=32307 fps=447 q=-0.0 size=N/A time=00:22:27.47 bitrate=N/A speed=18.7x    frame=32538 fps=447 q=-0.0 size=N/A time=00:22:37.10 bitrate=N/A speed=18.7x    frame=32776 fps=448 q=-0.0 size=N/A time=00:22:47.03 bitrate=N/A speed=18.7x    frame=33011 fps=448 q=-0.0 size=N/A time=00:22:56.83 bitrate=N/A speed=18.7x    frame=33261 fps=448 q=-0.0 size=N/A time=00:23:07.26 bitrate=N/A speed=18.7x    frame=33498 fps=448 q=-0.0 size=N/A time=00:23:17.14 bitrate=N/A speed=18.7x    frame=33753 fps=448 q=-0.0 size=N/A time=00:23:27.78 bitrate=N/A speed=18.7x    frame=33995 fps=448 q=-0.0 size=N/A time=00:23:37.87 bitrate=N/A speed=18.7x    [Parsed_psnr_10 @ 000001493e937cc0] PSNR y:47.548254 u:49.201047 v:48.770104 average:47.975181 min:40.098356 max:inf
[out#0/null @ 000001493bfa4e00] video:14697KiB audio:267516KiB subtitle:0KiB other streams:0KiB global headers:0KiB muxing overhead: unknown
frame=34203 fps=449 q=-0.0 Lsize=N/A time=00:23:46.55 bitrate=N/A speed=18.7x    
